<svg width="20" height="21" viewBox="0 0 20 21" fill="none" xmlns="http://www.w3.org/2000/svg">
<path fill-rule="evenodd" clip-rule="evenodd" d="M6.0412 19.3484H14.3832C17.4475 19.3484 19.7982 18.2849 19.1305 14.0048L18.353 8.2041C17.9414 6.0684 16.5236 5.25104 15.2796 5.25104H5.10821C3.84593 5.25104 2.51047 6.12993 2.03483 8.2041L1.25734 14.0048C0.690227 17.8016 2.97697 19.3484 6.0412 19.3484Z" stroke="#A5A2B8" stroke-width="1.5" stroke-linecap="round" stroke-linejoin="round"/>
<path d="M5.9041 5.04011C5.9041 2.74904 7.83705 0.891761 10.2215 0.891761V0.891761C11.3697 0.887086 12.4725 1.32208 13.2861 2.10055C14.0998 2.87903 14.5571 3.93685 14.5571 5.04011V5.04011" stroke="#A5A2B8" stroke-width="1.5" stroke-linecap="round" stroke-linejoin="round"/>
<path d="M7.25758 9.36425H7.30331" stroke="#A5A2B8" stroke-width="1.5" stroke-linecap="round" stroke-linejoin="round"/>
<path d="M13.0842 9.36425H13.13" stroke="#A5A2B8" stroke-width="1.5" stroke-linecap="round" stroke-linejoin="round"/>
</svg>
