<svg width="21" height="22" viewBox="0 0 21 22" fill="none" xmlns="http://www.w3.org/2000/svg">
<path d="M7.7107 19.1244V16.1798C7.71068 15.4308 8.34616 14.8222 9.13351 14.8172H12.0176C12.8087 14.8172 13.45 15.4272 13.45 16.1798V16.1798V19.1335C13.4498 19.7694 13.9834 20.2892 14.6517 20.3041H16.5744C18.4911 20.3041 20.0449 18.826 20.0449 17.0028V17.0028V8.62615C20.0347 7.90888 19.6806 7.23533 19.0836 6.79718L12.5079 1.75839C11.3559 0.881034 9.7183 0.881034 8.56631 1.75839L2.01946 6.80633C1.42011 7.2427 1.06549 7.91737 1.05811 8.63529V17.0028C1.05811 18.826 2.6119 20.3041 4.52861 20.3041H6.45132C7.13624 20.3041 7.69147 19.7759 7.69147 19.1244V19.1244" stroke="#352E5B" stroke-width="1.5" stroke-linecap="round" stroke-linejoin="round"/>
</svg>
