<svg width="25" height="24" viewBox="0 0 25 24" fill="none" xmlns="http://www.w3.org/2000/svg">
<path d="M18.1426 11.2499C19.7438 11.2499 21.0427 10.0027 21.0427 8.4642C21.0427 6.92567 19.7438 5.67847 18.1426 5.67847" stroke="#A5A2B8" stroke-width="1.5" stroke-linecap="round" stroke-linejoin="round"/>
<path d="M19.4761 14.2773C19.9542 14.309 20.4297 14.3741 20.8978 14.4754C21.5481 14.5977 22.3304 14.8538 22.6089 15.4145C22.7866 15.7736 22.7866 16.1917 22.6089 16.5517C22.3313 17.1123 21.5481 17.3676 20.8978 17.4961" stroke="#A5A2B8" stroke-width="1.5" stroke-linecap="round" stroke-linejoin="round"/>
<path d="M6.84595 11.2499C5.24473 11.2499 3.9458 10.0027 3.9458 8.4642C3.9458 6.92567 5.24473 5.67847 6.84595 5.67847" stroke="#A5A2B8" stroke-width="1.5" stroke-linecap="round" stroke-linejoin="round"/>
<path d="M5.51246 14.2773C5.03429 14.309 4.55887 14.3741 4.09078 14.4754C3.4404 14.5977 2.65811 14.8538 2.38055 15.4145C2.20193 15.7736 2.20193 16.1917 2.38055 16.5517C2.65719 17.1123 3.4404 17.3676 4.09078 17.4961" stroke="#A5A2B8" stroke-width="1.5" stroke-linecap="round" stroke-linejoin="round"/>
<path fill-rule="evenodd" clip-rule="evenodd" d="M12.4896 14.8772C15.7342 14.8772 18.5061 15.349 18.5061 17.237C18.5061 19.124 15.7525 19.6134 12.4896 19.6134C9.24414 19.6134 6.47314 19.1417 6.47314 17.2537C6.47314 15.3657 9.22673 14.8772 12.4896 14.8772Z" stroke="#A5A2B8" stroke-width="1.5" stroke-linecap="round" stroke-linejoin="round"/>
<path fill-rule="evenodd" clip-rule="evenodd" d="M12.4894 12.1843C10.3495 12.1843 8.63379 10.5357 8.63379 8.47874C8.63379 6.42267 10.3495 4.77411 12.4894 4.77411C14.6292 4.77411 16.3449 6.42267 16.3449 8.47874C16.3449 10.5357 14.6292 12.1843 12.4894 12.1843Z" stroke="#A5A2B8" stroke-width="1.5" stroke-linecap="round" stroke-linejoin="round"/>
</svg>
